<?xml version="1.0" encoding="utf-8"?>
<!-- Generator: Adobe Illustrator 26.0.1, SVG Export Plug-In . SVG Version: 6.00 Build 0)  -->
<svg version="1.1" id="Layer_1" focusable="false" xmlns="http://www.w3.org/2000/svg" xmlns:xlink="http://www.w3.org/1999/xlink"
	 x="0px" y="0px" viewBox="0 0 448 512" style="enable-background:new 0 0 448 512;" xml:space="preserve">
<style type="text/css">
	.st0{fill:#04ADC0;}
</style>
<path class="st0" d="M12,192h424c6.6,0,12,5.4,12,12v260c0,26.5-21.5,48-48,48H48c-26.5,0-48-21.5-48-48V204C0,197.4,5.4,192,12,192
	z M448,148v-36c0-26.5-21.5-48-48-48h-48V12c0-6.6-5.4-12-12-12h-40c-6.6,0-12,5.4-12,12v52H160V12c0-6.6-5.4-12-12-12h-40
	c-6.6,0-12,5.4-12,12v52H48C21.5,64,0,85.5,0,112v36c0,6.6,5.4,12,12,12h424C442.6,160,448,154.6,448,148z"/>
</svg>
