<svg xmlns="http://www.w3.org/2000/svg" width="199.021" height="175.547" viewBox="0 0 199.021 175.547"><path d="M183.259,6.75H164.122V18.719a3.923,3.923,0,0,1-3.827,3.99h-7.655a3.923,3.923,0,0,1-3.827-3.99V6.75H56.957V18.719a3.923,3.923,0,0,1-3.827,3.99H45.476a3.923,3.923,0,0,1-3.827-3.99V6.75H22.512C11.986,6.75,3.375,15.727,3.375,26.7v135.65c0,10.972,8.611,19.948,19.137,19.948H183.259c10.525,0,19.137-8.977,19.137-19.948V26.7C202.4,15.727,193.784,6.75,183.259,6.75Zm3.827,149.614a9.806,9.806,0,0,1-9.568,9.974H28.253a9.806,9.806,0,0,1-9.568-9.974V66.6a3.923,3.923,0,0,1,3.827-3.99H183.259a3.923,3.923,0,0,1,3.827,3.99Z" transform="translate(-3.375 -6.75)" fill="#04adc0"/></svg>