<svg xmlns="http://www.w3.org/2000/svg" width="205.009" height="185.85" viewBox="0 0 205.009 185.85"><path d="M196.467,4.5H31.321c-4.718,0-8.542,5.2-8.542,11.616v3.872H8.542C3.824,19.987,0,25.188,0,31.6V163.247c0,14.969,8.924,27.1,19.931,27.1H187.925c9.435,0,17.084-10.4,17.084-23.231v-151C205.009,9.7,201.185,4.5,196.467,4.5ZM19.931,167.118c-1.573,0-2.847-1.733-2.847-3.872V43.219h5.695V163.247C22.779,165.385,21.5,167.118,19.931,167.118Zm84-7.744h-54.1c-2.359,0-4.271-2.6-4.271-5.808v-3.872c0-3.207,1.912-5.808,4.271-5.808h54.1c2.359,0,4.271,2.6,4.271,5.808v3.872C108.2,156.774,106.287,159.375,103.928,159.375Zm74.031,0h-54.1c-2.359,0-4.271-2.6-4.271-5.808v-3.872c0-3.207,1.912-5.808,4.271-5.808h54.1c2.359,0,4.271,2.6,4.271,5.808v3.872C182.23,156.774,180.318,159.375,177.959,159.375Zm-74.031-46.462h-54.1c-2.359,0-4.271-2.6-4.271-5.808v-3.872c0-3.207,1.912-5.808,4.271-5.808h54.1c2.359,0,4.271,2.6,4.271,5.808V107.1C108.2,110.312,106.287,112.912,103.928,112.912Zm74.031,0h-54.1c-2.359,0-4.271-2.6-4.271-5.808v-3.872c0-3.207,1.912-5.808,4.271-5.808h54.1c2.359,0,4.271,2.6,4.271,5.808V107.1C182.23,110.312,180.318,112.912,177.959,112.912Zm0-46.462H49.829c-2.359,0-4.271-2.6-4.271-5.808V41.283c0-3.207,1.912-5.808,4.271-5.808H177.959c2.359,0,4.271,2.6,4.271,5.808V60.642C182.23,63.849,180.318,66.45,177.959,66.45Z" transform="translate(0 -4.5)" fill="#f1b440"/></svg>